<svg width="512" height="512" viewBox="0 0 512 512" xmlns="http://www.w3.org/2000/svg">
  <defs>
    <linearGradient id="gradient" x1="0%" y1="0%" x2="100%" y2="100%">
      <stop offset="0%" style="stop-color:#1d4ed8;stop-opacity:1" />
      <stop offset="100%" style="stop-color:#3b82f6;stop-opacity:1" />
    </linearGradient>
  </defs>
  <rect width="512" height="512" rx="64" fill="url(#gradient)"/>
  <g fill="white">
    <!-- Factory icon -->
    <path d="M128 384V256L192 224V256L256 224V256L320 224V384H128Z" stroke="white" stroke-width="6"/>
    <rect x="160" y="288" width="24" height="24"/>
    <rect x="224" y="288" width="24" height="24"/>
    <rect x="288" y="288" width="24" height="24"/>
    <rect x="160" y="320" width="24" height="24"/>
    <rect x="224" y="320" width="24" height="24"/>
    <rect x="288" y="320" width="24" height="24"/>
    <rect x="160" y="352" width="24" height="24"/>
    <rect x="224" y="352" width="24" height="24"/>
    <rect x="288" y="352" width="24" height="24"/>
    <!-- Text -->
    <text x="256" y="448" font-family="Arial, sans-serif" font-size="48" font-weight="bold" text-anchor="middle" fill="white">EPOCH v8</text>
  </g>
</svg>